<svg xmlns="http://www.w3.org/2000/svg" xmlns:xlink="http://www.w3.org/1999/xlink" height="56.70000076293945px" id="Layer_1" style="enable-background:new 0 0 56.7 56.7;" version="1.1" viewBox="0 0 56.70000076293945 56.70000076293945" width="56.70000076293945px" xml:space="preserve" ><rect id="svgEditorBackground" x="0" y="0" width="56.70000076293945" height="56.70000076293945" style="fill:none;stroke:none;"/><defs id="svgEditorDefs"><linearGradient gradientUnits="objectBoundingBox" id="lgrd2-peachpuff-sienna-h" spreadMethod="pad" x1="0%" x2="100%" y1="0%" y2="0%"><stop offset="0%" style="stop-color:peachpuff;  stop-opacity:1;"/><stop offset="100%" style="stop-color:sienna;  stop-opacity:1"/></linearGradient><linearGradient id="gradient1" xlink:href="#lgrd2-black-white"/><linearGradient gradientUnits="objectBoundingBox" id="lgrd2-fire" spreadMethod="pad" x1="0%" x2="100%" y1="0%" y2="0%"><stop offset="0%" style="stop-color: rgb(249, 237, 50); stop-opacity: 1;"/><stop offset="0.6" style="stop-color: rgb(238, 42, 123); stop-opacity: 1;"/><stop style="stop-color: rgb(0, 42, 255);" offset="1"/></linearGradient><linearGradient gradientUnits="objectBoundingBox" id="gradient2" spreadMethod="pad" x1="0%" x2="100%" y1="0%" y2="0%"><stop offset="0%" style="stop-color: rgb(249, 237, 50); stop-opacity: 1;"/><stop offset="0.8" style="stop-color: rgb(238, 42, 123); stop-opacity: 1;"/></linearGradient><linearGradient gradientUnits="objectBoundingBox" id="gradient3" spreadMethod="pad" x1="0%" x2="100%" y1="0%" y2="0%" gradientTransform="rotate(0)"><stop offset="0" style="stop-color: rgb(249, 237, 50); stop-opacity: 1;"/><stop offset="0.903455" style="stop-color: rgb(238, 42, 123); stop-opacity: 1;"/><stop style="stop-color: rgb(0, 42, 255); stop-opacity: 1;" offset="1"/></linearGradient></defs><g><circle cx="28.1" cy="30" r="4.4" style="fill:url(#gradient2);"/><path d="M33.6,19.2h-11c-1.6000000000000014,0,-3,0.5,-3.8999999999999986,1.3999999999999986c-0.8999999999999986,0.8999999999999986,-1.3999999999999986,2.3000000000000007,-1.3999999999999986,3.8999999999999986v11.000000000000004c0,1.6000000000000014,0.5,3,1.5,4c1,0.8999999999999986,2.3000000000000007,1.3999999999999986,3.8999999999999986,1.3999999999999986h10.899999999999999c1.6000000000000014,0,3,-0.5,3.8999999999999986,-1.3999999999999986c1,-0.8999999999999986,1.5,-2.299999999999997,1.5,-3.8999999999999986v-11c0,-1.6000000000000014,-0.5,-2.8999999999999986,-1.3999999999999986,-3.8999999999999986c-1,-1.0000000000000036,-2.3000000000000043,-1.5000000000000036,-4,-1.5000000000000036ZM28.1,36.8c-3.8000000000000007,0,-6.800000000000001,-3.1000000000000014,-6.800000000000001,-6.800000000000001c0,-3.8000000000000007,3.1000000000000014,-6.800000000000001,6.800000000000001,-6.800000000000001s6.899999999999999,3.0000000000000036,6.899999999999999,6.800000000000004c0,3.799999999999997,-3.1000000000000014,6.799999999999997,-6.899999999999999,6.799999999999997ZM35.2,24.5c-0.8999999999999986,0,-1.6000000000000014,-0.6999999999999993,-1.6000000000000014,-1.6000000000000014s0.7000000000000028,-1.6000000000000014,1.6000000000000014,-1.6000000000000014s1.6000000000000014,0.6999999999999993,1.6000000000000014,1.6000000000000014s-0.7000000000000028,1.6000000000000014,-1.6000000000000014,1.6000000000000014Z" style="fill:url(#gradient3);"/><path d="M28.3,5.2c-13.6,0,-24.6,11,-24.6,24.6c0,13.599999999999998,11,24.600000000000005,24.6,24.600000000000005c13.599999999999998,0,24.600000000000005,-11,24.600000000000005,-24.6c0.09999999999999432,-13.600000000000005,-11.000000000000007,-24.600000000000005,-24.600000000000005,-24.600000000000005ZM41.4,35.6c0,2.299999999999997,-0.7999999999999972,4.299999999999997,-2.200000000000003,5.700000000000003c-1.3999999999999986,1.3999999999999986,-3.3999999999999986,2.1000000000000014,-5.600000000000001,2.1000000000000014h-10.899999999999995c-2.1999999999999993,0,-4.199999999999999,-0.7000000000000028,-5.599999999999998,-2.1000000000000014c-1.5,-1.3999999999999986,-2.1999999999999993,-3.3999999999999986,-2.1999999999999993,-5.700000000000003v-11c0,-4.600000000000001,3.1000000000000014,-7.800000000000001,7.800000000000001,-7.800000000000001h11c2.299999999999997,0,4.200000000000003,0.8000000000000007,5.600000000000001,2.1999999999999993c1.3999999999999986,1.3999999999999986,2.1000000000000014,3.3000000000000007,2.1000000000000014,5.600000000000001v11Z" style="fill:url(#lgrd2-fire);"/></g></svg>